:version 1.10
:name ASF
:units
  mass 1
  length 1
  angle deg
:documentation
  ASF file generated by Kaydara
:root
  axis xyz
  order  tx ty tz rx ry rz
  position 0 0 0
  orientation 0 0 0
:bonedata
  begin
    id 1
    name RightUpLegDummy
    direction -0.718183 -0.695806 0.00816078
    length 4.904
    axis 0 0 0 xyz
  end
  begin
    id 2
    name RightUpLeg
    direction -0.0736652 -0.994202 0.0783343
    length 17.4976
    axis -2.72909 -3.00389 -4.00133 xyz
    dof rx ry rz
  end
  begin
    id 3
    name RightLeg
    direction -0.0389037 -0.994596 -0.0962598
    length 16.5821
    axis 3.95836 -18.5909 -4.46993 xyz
    dof rx ry rz
  end
  begin
    id 4
    name RightFoot
    direction -0.311643 -0.412678 0.855906
    length 3.77069
    axis -1.99483 -18.8351 -3.27644 xyz
    dof rx ry rz
  end
  begin
    id 5
    name RightToes
    direction -0.317852 0.0389852 0.947339
    length 3.85082
    axis -2.00228 -18.1713 -3.25211 xyz
    dof rx ry rz
  end
  begin
    id 6
    name SpineDummy
    direction 8.3039e-015 1 4.44677e-016
    length 4.6813
    axis 0 0 0 xyz
  end
  begin
    id 7
    name Spine
    direction -0.000262373 0.999988 0.00493267
    length 10.1015
    axis -0.00246081 0.00062579 0.0150362 xyz
    dof rx ry rz
  end
  begin
    id 8
    name Spine1
    direction 0 0 0
    length 0
    axis -0.00349562 0.000650293 0.0196666 xyz
    dof rx ry rz
  end
  begin
    id 9
    name HEadDummy
    direction -0.000343232 0.999999 0.00123745
    length 3.43865
    axis -0.00349562 0.000650293 0.0196666 xyz
  end
  begin
    id 10
    name HEad
    direction -0.0461221 0.980933 0.188796
    length 5.12695
    axis -0.00351404 -7.04812 0.0199272 xyz
    dof rx ry rz
  end
  begin
    id 11
    name LeftShoulder1Dummy
    direction 0.998904 -0.0399089 -0.0244534
    length 3.5433
    axis -0.00349562 0.000650293 0.0196666 xyz
  end
  begin
    id 12
    name LeftShoulder1
    direction 0.99951 1.64443e-005 0.0312999
    length 4.05031
    axis -0.00349562 0.000650293 0.0196666 xyz
    dof rx ry rz
  end
  begin
    id 13
    name LeftArm
    direction 0.984791 0.0515299 0.165927
    length 12.9126
    axis -64.823 -10.7743 5.20463 xyz
    dof rx ry rz
  end
  begin
    id 14
    name LeftForeArm
    direction 0.984968 0.0534808 0.16425
    length 10.8596
    axis -30.0462 -7.70601 1.87451 xyz
    dof rx ry rz
  end
  begin
    id 15
    name LeftHand
    direction 0.975871 0.0289682 0.216418
    length 6.62295
    axis -20.1348 -6.98077 1.86072 xyz
    dof rx ry rz
  end
  begin
    id 16
    name RightShoulderDummy
    direction -0.998877 -0.0405946 -0.0244307
    length 3.5433
    axis -0.00349562 0.000650293 0.0196666 xyz
  end
  begin
    id 17
    name RightShoulder
    direction -0.998933 -0.0249743 -0.0388558
    length 4.05031
    axis -0.0205316 -4.02113 1.41395 xyz
    dof rx ry rz
  end
  begin
    id 18
    name RightArm
    direction -0.997559 0.068664 0.0127103
    length 12.9638
    axis -67.3882 1.84188 -6.15987 xyz
    dof rx ry rz
  end
  begin
    id 19
    name RightForeArm
    direction -0.991508 0.0912848 0.0926241
    length 10.8312
    axis -22.1975 3.41087 -4.28711 xyz
    dof rx ry rz
  end
  begin
    id 20
    name RightHand
    direction -0.989262 0.0600788 0.133232
    length 6.57864
    axis -12.2911 2.17515 -4.39675 xyz
    dof rx ry rz
  end
  begin
    id 21
    name LeftUpLegDummy
    direction 0.718183 -0.695806 0.00816078
    length 4.904
    axis 0 0 0 xyz
  end
  begin
    id 22
    name LeftUpLeg
    direction 0.0831398 -0.99469 0.0606531
    length 17.4976
    axis -1.71016 2.29552 4.63832 xyz
    dof rx ry rz
  end
  begin
    id 23
    name LeftLeg
    direction 0.0498442 -0.991778 -0.117862
    length 16.5821
    axis 5.13757 15.5727 5.13348 xyz
    dof rx ry rz
  end
  begin
    id 24
    name LeftFoot
    direction 0.269026 -0.433896 0.85986
    length 3.77069
    axis -0.576502 15.6961 4.10267 xyz
    dof rx ry rz
  end
  begin
    id 25
    name LeftToes
    direction 0.277311 0.0251143 0.960452
    length 3.85048
    axis -0.576502 15.6961 4.10267 xyz
    dof rx ry rz
  end
:hierarchy
  begin
    root RightUpLegDummy SpineDummy LeftUpLegDummy
    RightUpLegDummy RightUpLeg
    RightUpLeg RightLeg
    RightLeg RightFoot
    RightFoot RightToes
    SpineDummy Spine
    Spine Spine1
    Spine1 HEadDummy LeftShoulder1Dummy RightShoulderDummy
    HEadDummy HEad
    LeftShoulder1Dummy LeftShoulder1
    LeftShoulder1 LeftArm
    LeftArm LeftForeArm
    LeftForeArm LeftHand
    RightShoulderDummy RightShoulder
    RightShoulder RightArm
    RightArm RightForeArm
    RightForeArm RightHand
    LeftUpLegDummy LeftUpLeg
    LeftUpLeg LeftLeg
    LeftLeg LeftFoot
    LeftFoot LeftToes
  end

:SAMPLES-PER-SECOND 30
:FULLY-SPECIFIED
:DEGREES
92
root  0.375722 38.0716 22.8922 179.551 8.81313 178.985
RightUpLeg  -33.0454 -8.45 5.66902
RightLeg  42.2408 8.11768 -8.71469
RightFoot  -1.4354 -0.185531 1.7554
RightToes  -5.82073e-011 -3.18055e-015 -2.98177e-016
Spine  15.5165 0.278601 1.82577
Spine1  10.3706 2.06694 -5.56122
HEad  -8.57942 5.27038 -3.61636
LeftShoulder1  -3.88251e-019 9.70628e-020 -3.87848e-018
LeftArm  -4.40569 39.1006 -63.4841
LeftForeArm  -20.5594 -28.5187 4.95933
LeftHand  -0.973209 -4.6501 11.9241
RightShoulder  7.29814 10.5812 34.2551
RightArm  8.91184 -41.9824 24.7206
RightForeArm  14.8932 16.9875 -6.88229
RightHand  -1.11161 2.90163 -15.3534
LeftUpLeg  -18.482 1.45861 -9.67522
LeftLeg  31.3608 6.25762 13.9896
LeftFoot  -16.0381 -0.0432601 -0.0146141
LeftToes  -3.44176e-011 4.05998e-011 -5.21293e-012
93
root  0.436389 37.861 22.2766 -179.894 8.72517 179.567
RightUpLeg  -33.8639 -9.0567 7.60001
RightLeg  33.6451 9.98209 -5.29335
RightFoot  -1.26674 -0.313123 2.94458
RightToes  -5.82073e-011 -3.18055e-015 -2.98177e-016
Spine  17.7337 0.0416069 1.71097
Spine1  9.94504 1.38156 -4.21121
HEad  -9.23555 5.99558 -3.88461
LeftShoulder1  -3.88251e-019 9.70628e-020 -3.87848e-018
LeftArm  -2.90484 35.5606 -62.6375
LeftForeArm  -21.1871 -29.1142 5.22108
LeftHand  -0.974098 -4.77954 11.7814
RightShoulder  7.2314 10.5776 33.9232
RightArm  7.11568 -42.7697 24.0116
RightForeArm  15.4422 15.9665 -6.18952
RightHand  -0.979271 2.22646 -14.7011
LeftUpLeg  -19.0432 2.19825 -9.08197
LeftLeg  33.4742 5.08514 14.2669
LeftFoot  -17.9609 -0.065674 -0.406609
LeftToes  -3.44176e-011 4.05998e-011 -5.21293e-012
94
root  0.505211 37.5668 21.6765 -179.079 8.56952 -179.896
RightUpLeg  -34.9052 -9.75886 9.53956
RightLeg  25.5204 12.4044 -2.45752
RightFoot  -1.73168 -0.412585 4.09122
RightToes  -5.82073e-011 -3.18055e-015 -2.98177e-016
Spine  20.2253 -0.167764 1.96014
Spine1  9.06265 0.841706 -3.35682
HEad  -10.037 6.32466 -3.90347
LeftShoulder1  -3.88251e-019 9.70628e-020 -3.87848e-018
LeftArm  -1.69179 31.9421 -61.9916
LeftForeArm  -20.8212 -28.9409 5.14884
LeftHand  -0.927588 -4.55595 11.4869
RightShoulder  7.18284 10.5807 33.6687
RightArm  8.0398 -43.9134 22.8105
RightForeArm  13.1466 16.2071 -6.22302
RightHand  -0.847093 1.58539 -13.8696
LeftUpLeg  -20.1913 3.28778 -8.53289
LeftLeg  36.0969 3.5284 14.4309
LeftFoot  -20.1467 -0.0979159 -0.708886
LeftToes  -3.44176e-011 4.05998e-011 -5.21293e-012
95
root  0.581443 37.1359 21.0322 -178.106 8.64041 -179.468
RightUpLeg  -36.4108 -7.50686 9.4428
RightLeg  20.0633 11.2373 -0.6519
RightFoot  -3.94772 -0.455045 5.71679
RightToes  -5.82073e-011 -3.18055e-015 -2.98177e-016
Spine  22.9955 -0.345875 2.41508
Spine1  7.77678 0.571056 -3.23997
HEad  -11.1561 6.36723 -3.85015
LeftShoulder1  -3.88251e-019 9.70628e-020 -3.87848e-018
LeftArm  -1.0425 28.4725 -61.6211
LeftForeArm  -19.9107 -28.4533 4.92655
LeftHand  -0.905724 -4.56196 11.218
RightShoulder  7.15265 10.5793 33.5173
RightArm  10.0553 -44.6154 21.6017
RightForeArm  11.017 16.863 -6.4759
RightHand  -0.795138 1.52531 -13.1371
LeftUpLeg  -21.7843 4.79735 -8.10965
LeftLeg  39.4977 1.74628 14.6392
LeftFoot  -22.7722 -0.140378 -0.93544
LeftToes  -3.44176e-011 4.05998e-011 -5.21293e-012
96
root  0.672022 36.5647 20.3393 -176.991 8.94196 -178.919
RightUpLeg  -38.636 -3.10091 7.96523
RightLeg  18.6133 6.74768 -0.0909369
RightFoot  -6.53076 -0.388549 6.76524
RightToes  -5.82073e-011 -3.18055e-015 -2.98177e-016
Spine  25.6905 -0.537518 3.11341
Spine1  6.60555 0.452582 -3.46572
HEad  -12.561 6.38462 -3.71323
LeftShoulder1  -3.88251e-019 9.70628e-020 -3.87848e-018
LeftArm  -1.05881 25.2535 -61.4148
LeftForeArm  -19.0593 -27.9329 4.61794
LeftHand  -0.954914 -4.99116 11.3185
RightShoulder  7.05658 10.5737 33.0369
RightArm  10.4208 -44.5005 21.8145
RightForeArm  11.629 16.968 -6.51468
RightHand  -0.803106 2.04059 -12.3808
LeftUpLeg  -23.769 6.54304 -7.55096
LeftLeg  43.695 -0.21378 14.8532
LeftFoot  -25.7426 -0.211423 -1.27647
LeftToes  -3.44176e-011 4.05998e-011 -5.21293e-012
97
root  0.794161 35.8431 19.6242 -175.462 9.19278 -178.02
RightUpLeg  -42.1977 -3.81079 10.9764
RightLeg  20.935 7.96274 -1.04363
RightFoot  -6.24232 -0.276783 4.9144
RightToes  -5.82073e-011 -3.18055e-015 -2.98177e-016
Spine  27.896 -0.747272 4.09669
Spine1  5.7581 0.298047 -3.48873
HEad  -14.0897 6.43973 -3.30368
LeftShoulder1  -3.88251e-019 9.70628e-020 -3.87848e-018
LeftArm  -1.61231 22.3246 -61.3555
LeftForeArm  -18.5457 -27.3906 4.22832
LeftHand  -1.02274 -5.3863 11.66
RightShoulder  6.83036 10.5806 31.8568
RightArm  8.48391 -43.7713 23.9577
RightForeArm  14.7344 16.481 -6.31372
RightHand  -0.838879 2.83591 -11.72
LeftUpLeg  -26.4742 7.98253 -6.64456
LeftLeg  48.6906 -2.14477 15.2296
LeftFoot  -29.093 -0.366782 -2.04062
LeftToes  -3.44176e-011 4.05998e-011 -5.21293e-012
98
root  0.942064 34.9532 18.8883 -173.383 9.25592 -176.799
RightUpLeg  -47.0666 -5.77754 16.0288
RightLeg  25.7278 11.3709 -2.84234
RightFoot  -1.76959 0.0277438 -0.0787115
RightToes  -5.82073e-011 -3.18055e-015 -2.98177e-016
Spine  29.8118 -0.944627 5.3366
Spine1  4.63745 0.150729 -3.37481
HEad  -15.6589 6.34618 -2.69273
LeftShoulder1  -3.88251e-019 9.70628e-020 -3.87848e-018
LeftArm  -2.65191 19.6289 -61.5892
LeftForeArm  -18.0194 -26.6753 3.66341
LeftHand  -1.01118 -5.31284 11.6074
RightShoulder  6.57194 10.609 30.4567
RightArm  7.17933 -42.2873 26.4311
RightForeArm  17.6384 16.2157 -6.18855
RightHand  -0.946291 3.85652 -11.7849
LeftUpLeg  -29.993 8.86433 -5.49749
LeftLeg  54.3691 -3.88729 15.9911
LeftFoot  -32.79 -0.650112 -3.22645
LeftToes  -3.44176e-011 4.05998e-011 -5.21293e-012
99
root  1.08735 33.9182 18.1284 -171 9.24902 -175.566
RightUpLeg  -52.8678 -4.17575 17.8597
RightLeg  32.4307 11.2144 -4.22178
RightFoot  3.40323 0.802105 -5.6945
RightToes  -5.82073e-011 -3.18055e-015 -2.98177e-016
Spine  31.8439 -1.12083 6.55305
Spine1  2.91379 0.159759 -3.52359
HEad  -17.3659 6.046 -2.23364
LeftShoulder1  -3.88251e-019 9.70628e-020 -3.87848e-018
LeftArm  -4.20556 16.8312 -62.1346
LeftForeArm  -17.0184 -25.5935 2.76841
LeftHand  -0.930617 -4.97661 11.0557
RightShoulder  6.4079 10.6238 29.5694
RightArm  9.0322 -39.3381 27.6978
RightForeArm  18.8342 16.7125 -6.13882
RightHand  -1.14766 5.06425 -12.669
LeftUpLeg  -33.9609 9.39009 -4.43617
LeftLeg  60.5371 -5.63213 16.9604
LeftFoot  -36.3656 -1.05231 -4.6263
LeftToes  -3.44176e-011 4.05998e-011 -5.21293e-012
100
root  1.22259 32.8132 17.3768 -168.578 9.18823 -174.518
RightUpLeg  -59.1875 -3.13026 19.2648
RightLeg  40.3479 11.6154 -4.85127
RightFoot  4.4328 1.44912 -9.54432
RightToes  -5.82073e-011 -3.18055e-015 -2.98177e-016
Spine  33.8134 -1.28144 7.49324
Spine1  1.32267 0.291888 -3.86151
HEad  -19.3491 5.74219 -1.99501
LeftShoulder1  -3.88251e-019 9.70628e-020 -3.87848e-018
LeftArm  -6.33866 13.4304 -62.8039
LeftForeArm  -15.3769 -23.9862 1.44861
LeftHand  -0.880934 -4.74114 10.7257
RightShoulder  6.25702 10.5919 28.8387
RightArm  13.2714 -34.7995 28.6581
RightForeArm  18.76 17.6852 -6.34772
RightHand  -1.32816 6.1237 -13.338
LeftUpLeg  -38.079 9.68726 -3.54203
LeftLeg  67.0865 -7.66619 17.5417
LeftFoot  -39.1719 -1.55754 -6.25825
LeftToes  -3.44176e-011 4.05998e-011 -5.21293e-012
101
root  1.35999 31.7262 16.6887 -166.191 8.91983 -173.37
RightUpLeg  -65.1082 -2.85454 21.2601
RightLeg  48.1021 12.2084 -5.38948
RightFoot  1.09484 1.39961 -11.1858
RightToes  -5.82073e-011 -3.18055e-015 -2.98177e-016
Spine  35.456 -1.38159 8.44236
Spine1  0.487582 0.457444 -3.92184
HEad  -21.5306 5.53902 -1.60987
LeftShoulder1  -3.88251e-019 9.70628e-020 -3.87848e-018
LeftArm  -9.16573 9.17078 -63.5542
LeftForeArm  -12.8362 -21.625 -0.200773
LeftHand  -0.8671 -4.38897 10.9436
RightShoulder  5.93142 10.5178 27.2515
RightArm  17.8691 -29.5639 30.7047
RightForeArm  18.1934 18.7347 -7.16949
RightHand  -1.37806 6.77682 -13.108
LeftUpLeg  -42.2648 9.74653 -2.36818
LeftLeg  73.8887 -9.91353 17.3022
LeftFoot  -40.9055 -2.17355 -8.31481
LeftToes  -3.44176e-011 4.05998e-011 -5.21293e-012
102
root  1.49665 30.684 16.0714 -163.929 8.4045 -171.825
RightUpLeg  -70.1413 -2.53532 23.6983
RightLeg  54.714 12.5231 -6.15922
RightFoot  -3.10247 1.02673 -11.5056
RightToes  -5.82073e-011 -3.18055e-015 -2.98177e-016
Spine  37.0738 -1.37506 9.67933
Spine1  -0.121668 0.714975 -3.56183
HEad  -23.5595 5.30671 -0.882462
LeftShoulder1  -3.88251e-019 9.70628e-020 -3.87848e-018
LeftArm  -12.1512 4.28424 -64.5722
LeftForeArm  -9.33308 -18.2532 -1.66002
LeftHand  -0.820808 -3.67068 11.1969
RightShoulder  5.44898 10.4306 24.8112
RightArm  22.722 -24.0989 33.237
RightForeArm  16.8338 19.7835 -8.56378
RightHand  -1.40584 7.13416 -12.9972
LeftUpLeg  -46.313 9.76105 -0.572577
LeftLeg  80.7409 -12.0376 16.3097
LeftFoot  -41.8094 -2.86666 -10.7231
LeftToes  -3.44176e-011 4.05998e-011 -5.21293e-012
